<?xml version="1.0" encoding="UTF-8"?>
<svg id="_x30_" xmlns="http://www.w3.org/2000/svg" width="135.25mm" height="135.25mm" version="1.1" viewBox="0 0 383.386 383.386">
  <!-- Generator: Adobe Illustrator 30.3.0, SVG Export Plug-In . SVG Version: 2.1.3 Build 182)  -->
  <defs>
    <style>
      .st0 {
        fill: none;
        stroke: #000;
        stroke-linecap: round;
        stroke-linejoin: round;
        stroke-width: .709px;
      }
    </style>
  </defs>
  <g id="LINE">
    <line class="st0" x1="305.079" y1=".354" x2="305.079" y2="17.362"/>
  </g>
  <g id="LINE1" data-name="LINE">
    <line class="st0" x1="366.024" y1="17.362" x2="366.024" y2="92.48"/>
  </g>
  <g id="LINE2" data-name="LINE">
    <line class="st0" x1="366.024" y1="92.48" x2="383.031" y2="92.48"/>
  </g>
  <g id="LINE3" data-name="LINE">
    <line class="st0" x1="383.031" y1="149.173" x2="366.024" y2="149.173"/>
  </g>
  <g id="LINE4" data-name="LINE">
    <line class="st0" x1="366.024" y1="149.173" x2="366.024" y2="234.213"/>
  </g>
  <g id="LINE5" data-name="LINE">
    <line class="st0" x1="366.024" y1="234.213" x2="383.031" y2="234.213"/>
  </g>
  <g id="LINE6" data-name="LINE">
    <line class="st0" x1="383.031" y1="305.079" x2="366.024" y2="305.079"/>
  </g>
  <g id="LINE7" data-name="LINE">
    <line class="st0" x1="366.024" y1="305.079" x2="366.024" y2="365.74"/>
  </g>
  <g id="LINE8" data-name="LINE">
    <line class="st0" x1="305.079" y1="366.024" x2="305.079" y2="383.031"/>
  </g>
  <g id="LINE9" data-name="LINE">
    <line class="st0" x1="234.213" y1="366.024" x2="149.173" y2="366.024"/>
  </g>
  <g id="LINE10" data-name="LINE">
    <line class="st0" x1="149.173" y1="366.024" x2="149.173" y2="383.031"/>
  </g>
  <g id="LINE11" data-name="LINE">
    <line class="st0" x1="234.213" y1="383.031" x2="234.213" y2="366.024"/>
  </g>
  <g id="LINE12" data-name="LINE">
    <line class="st0" x1="78.307" y1="383.031" x2="78.307" y2="366.024"/>
  </g>
  <g id="LINE13" data-name="LINE">
    <line class="st0" x1="17.362" y1="365.74" x2="17.362" y2="305.079"/>
  </g>
  <g id="LINE14" data-name="LINE">
    <line class="st0" x1="17.362" y1="305.079" x2=".354" y2="305.079"/>
  </g>
  <g id="LINE15" data-name="LINE">
    <line class="st0" x1="17.362" y1="234.213" x2="17.362" y2="149.173"/>
  </g>
  <g id="LINE16" data-name="LINE">
    <line class="st0" x1="17.362" y1="149.173" x2=".354" y2="149.173"/>
  </g>
  <g id="LINE17" data-name="LINE">
    <line class="st0" x1=".354" y1="234.213" x2="17.362" y2="234.213"/>
  </g>
  <g id="LINE18" data-name="LINE">
    <line class="st0" x1="17.362" y1="92.48" x2="17.362" y2="17.646"/>
  </g>
  <g id="LINE19" data-name="LINE">
    <line class="st0" x1=".354" y1="92.48" x2="17.362" y2="92.48"/>
  </g>
  <g id="LINE20" data-name="LINE">
    <line class="st0" x1="78.307" y1="17.362" x2="78.307" y2=".354"/>
  </g>
  <g id="LINE21" data-name="LINE">
    <line class="st0" x1="149.173" y1=".354" x2="149.173" y2="17.362"/>
  </g>
  <g id="LINE22" data-name="LINE">
    <line class="st0" x1="149.173" y1="17.362" x2="234.213" y2="17.362"/>
  </g>
  <g id="LINE23" data-name="LINE">
    <line class="st0" x1="234.213" y1="17.362" x2="234.213" y2=".354"/>
  </g>
  <g id="LINE24" data-name="LINE">
    <line class="st0" x1="78.449" y1="383.031" x2="78.449" y2="365.457"/>
  </g>
  <g id="LINE25" data-name="LINE">
    <line class="st0" x1="149.031" y1="365.457" x2="149.031" y2="383.031"/>
  </g>
  <g id="LINE26" data-name="LINE">
    <line class="st0" x1="234.354" y1="383.031" x2="234.354" y2="365.457"/>
  </g>
  <g id="LINE27" data-name="LINE">
    <line class="st0" x1="304.937" y1="365.457" x2="304.937" y2="383.031"/>
  </g>
  <g id="LINE28" data-name="LINE">
    <line class="st0" x1="383.031" y1="304.937" x2="365.74" y2="304.937"/>
  </g>
  <g id="LINE29" data-name="LINE">
    <line class="st0" x1="365.74" y1="234.354" x2="383.031" y2="234.354"/>
  </g>
  <g id="LINE30" data-name="LINE">
    <line class="st0" x1="383.031" y1="149.031" x2="365.74" y2="149.031"/>
  </g>
  <g id="LINE31" data-name="LINE">
    <line class="st0" x1="365.74" y1="92.622" x2="383.031" y2="92.622"/>
  </g>
  <g id="LINE32" data-name="LINE">
    <line class="st0" x1="304.937" y1=".354" x2="304.937" y2="17.929"/>
  </g>
  <g id="LINE33" data-name="LINE">
    <line class="st0" x1="234.354" y1="17.929" x2="234.354" y2=".354"/>
  </g>
  <g id="LINE34" data-name="LINE">
    <line class="st0" x1="149.031" y1=".354" x2="149.031" y2="17.929"/>
  </g>
  <g id="LINE35" data-name="LINE">
    <line class="st0" x1="78.449" y1="17.929" x2="78.449" y2=".354"/>
  </g>
  <g id="LINE36" data-name="LINE">
    <line class="st0" x1=".354" y1="92.622" x2="17.646" y2="92.622"/>
  </g>
  <g id="LINE37" data-name="LINE">
    <line class="st0" x1="17.646" y1="149.031" x2=".354" y2="149.031"/>
  </g>
  <g id="LINE38" data-name="LINE">
    <line class="st0" x1=".354" y1="234.354" x2="17.646" y2="234.354"/>
  </g>
  <g id="LINE39" data-name="LINE">
    <line class="st0" x1="17.646" y1="304.937" x2=".354" y2="304.937"/>
  </g>
  <g id="LINE40" data-name="LINE">
    <line class="st0" x1="78.449" y1="365.457" x2="17.646" y2="365.457"/>
  </g>
  <g id="LINE41" data-name="LINE">
    <line class="st0" x1="17.646" y1="365.457" x2="17.646" y2="304.937"/>
  </g>
  <g id="LINE42" data-name="LINE">
    <line class="st0" x1="17.646" y1="234.354" x2="17.646" y2="149.031"/>
  </g>
  <g id="LINE43" data-name="LINE">
    <line class="st0" x1="17.646" y1="92.622" x2="17.646" y2="17.929"/>
  </g>
  <g id="LINE44" data-name="LINE">
    <line class="st0" x1="17.646" y1="17.929" x2="78.449" y2="17.929"/>
  </g>
  <g id="LINE45" data-name="LINE">
    <line class="st0" x1="304.937" y1="17.929" x2="365.74" y2="17.929"/>
  </g>
  <g id="LINE46" data-name="LINE">
    <line class="st0" x1="365.74" y1="17.929" x2="365.74" y2="92.622"/>
  </g>
  <g id="LINE47" data-name="LINE">
    <line class="st0" x1="365.74" y1="149.031" x2="365.74" y2="234.354"/>
  </g>
  <g id="LINE48" data-name="LINE">
    <line class="st0" x1="365.74" y1="304.937" x2="365.74" y2="365.457"/>
  </g>
  <g id="LINE49" data-name="LINE">
    <line class="st0" x1="365.74" y1="365.457" x2="304.937" y2="365.457"/>
  </g>
  <g id="LINE50" data-name="LINE">
    <line class="st0" x1="304.937" y1="383.031" x2="234.213" y2="383.031"/>
  </g>
  <g id="LINE51" data-name="LINE">
    <line class="st0" x1="149.031" y1="383.031" x2="78.449" y2="383.031"/>
  </g>
  <g id="LINE52" data-name="LINE">
    <line class="st0" x1=".354" y1="304.937" x2=".354" y2="234.354"/>
  </g>
  <g id="LINE53" data-name="LINE">
    <line class="st0" x1=".354" y1="149.031" x2=".354" y2="92.622"/>
  </g>
  <g id="LINE54" data-name="LINE">
    <line class="st0" x1="78.449" y1=".354" x2="149.031" y2=".354"/>
  </g>
  <g id="LINE55" data-name="LINE">
    <line class="st0" x1="234.354" y1=".354" x2="304.937" y2=".354"/>
  </g>
  <g id="LINE56" data-name="LINE">
    <line class="st0" x1="383.031" y1="92.622" x2="383.031" y2="149.031"/>
  </g>
  <g id="LINE57" data-name="LINE">
    <line class="st0" x1="383.031" y1="234.354" x2="383.031" y2="304.937"/>
  </g>
  <g id="CIRCLE">
    <circle class="st0" cx="127.949" cy="219.619" r="3.543"/>
  </g>
  <g id="CIRCLE1" data-name="CIRCLE">
    <circle class="st0" cx="163.616" cy="255.229" r="3.543"/>
  </g>
  <g id="CIRCLE2" data-name="CIRCLE">
    <circle class="st0" cx="219.628" cy="128.016" r="3.543"/>
  </g>
  <g id="CIRCLE3" data-name="CIRCLE">
    <circle class="st0" cx="255.295" cy="163.625" r="3.543"/>
  </g>
  <g id="CIRCLE4" data-name="CIRCLE">
    <circle class="st0" cx="62.717" cy="136.417" r="4.961"/>
  </g>
  <g id="CIRCLE5" data-name="CIRCLE">
    <circle class="st0" cx="62.717" cy="191.693" r="4.961"/>
  </g>
  <g id="CIRCLE6" data-name="CIRCLE">
    <circle class="st0" cx="62.717" cy="246.969" r="4.961"/>
  </g>
</svg>
