<?xml version="1.0" encoding="UTF-8"?>
<svg id="_x30_" xmlns="http://www.w3.org/2000/svg" width="677.333mm" height="381mm" version="1.1" viewBox="0 0 1920 1080">
  <!-- Generator: Adobe Illustrator 30.3.0, SVG Export Plug-In . SVG Version: 2.1.3 Build 182)  -->
  <defs>
    <style>
      .st0 {
        fill: none;
        stroke: #000;
        stroke-linecap: round;
        stroke-linejoin: round;
        stroke-width: .709px;
      }
    </style>
  </defs>
  <g id="LINE">
    <line class="st0" x1="786.453" y1="602.22" x2="769.161" y2="602.22"/>
  </g>
  <g id="LINE1" data-name="LINE">
    <line class="st0" x1="769.161" y1="486.283" x2="786.453" y2="486.283"/>
  </g>
  <g id="LINE2" data-name="LINE">
    <line class="st0" x1="1134.547" y1="486.283" x2="1151.839" y2="486.283"/>
  </g>
  <g id="LINE3" data-name="LINE">
    <line class="st0" x1="1151.839" y1="602.22" x2="1134.547" y2="602.22"/>
  </g>
  <line class="st0" x1="786.453" y1="486.283" x2="786.453" y2="394.016"/>
  <line class="st0" x1="786.453" y1="602.22" x2="786.453" y2="685.984"/>
  <line class="st0" x1="1134.547" y1="602.22" x2="1134.547" y2="685.984"/>
  <line class="st0" x1="1134.547" y1="486.283" x2="1134.547" y2="394.016"/>
  <line class="st0" x1="1134.547" y1="685.984" x2="1073.886" y2="685.984"/>
  <line class="st0" x1="1073.886" y1="668.693" x2="1073.886" y2="685.984"/>
  <line class="st0" x1="1003.02" y1="668.693" x2="1073.886" y2="668.693"/>
  <line class="st0" x1="1003.02" y1="685.984" x2="1003.02" y2="668.693"/>
  <line class="st0" x1="917.98" y1="685.984" x2="1003.02" y2="685.984"/>
  <line class="st0" x1="917.98" y1="668.693" x2="917.98" y2="685.984"/>
  <line class="st0" x1="861.287" y1="668.693" x2="917.98" y2="668.693"/>
  <line class="st0" x1="861.287" y1="685.984" x2="861.287" y2="668.693"/>
  <line class="st0" x1="786.453" y1="685.984" x2="861.287" y2="685.984"/>
  <line class="st0" x1="769.161" y1="602.22" x2="769.161" y2="486.283"/>
  <line class="st0" x1="786.453" y1="394.016" x2="1134.547" y2="394.016"/>
  <line class="st0" x1="1151.839" y1="486.283" x2="1151.839" y2="602.22"/>
</svg>