<?xml version="1.0" encoding="UTF-8"?>
<svg id="_x30_" xmlns="http://www.w3.org/2000/svg" width="135.25mm" height="97.25mm" version="1.1" viewBox="0 0 383.386 275.669">
  <!-- Generator: Adobe Illustrator 30.3.0, SVG Export Plug-In . SVG Version: 2.1.3 Build 182)  -->
  <defs>
    <style>
      .st0 {
        fill: none;
        stroke: #000;
        stroke-linecap: round;
        stroke-linejoin: round;
        stroke-width: .709px;
      }
    </style>
  </defs>
  <g id="LINE">
    <line class="st0" x1=".354" y1="75.472" x2="17.362" y2="75.472"/>
  </g>
  <g id="LINE1" data-name="LINE">
    <line class="st0" x1="17.362" y1="191.693" x2=".354" y2="191.693"/>
  </g>
  <g id="LINE2" data-name="LINE">
    <line class="st0" x1="366.024" y1="75.472" x2="383.031" y2="75.472"/>
  </g>
  <g id="LINE3" data-name="LINE">
    <line class="st0" x1="383.031" y1="191.693" x2="366.024" y2="191.693"/>
  </g>
  <g id="LINE4" data-name="LINE">
    <line class="st0" x1="17.646" y1="191.551" x2=".354" y2="191.551"/>
  </g>
  <g id="LINE5" data-name="LINE">
    <line class="st0" x1=".354" y1="75.614" x2="17.646" y2="75.614"/>
  </g>
  <g id="LINE6" data-name="LINE">
    <line class="st0" x1="365.74" y1="75.614" x2="383.031" y2="75.614"/>
  </g>
  <g id="LINE7" data-name="LINE">
    <line class="st0" x1="383.031" y1="191.551" x2="365.74" y2="191.551"/>
  </g>
  <g id="LINE8" data-name="LINE">
    <line class="st0" x1="89.646" y1="17.362" x2="293.74" y2="17.362"/>
  </g>
  <g id="LINE9" data-name="LINE">
    <line class="st0" x1="149.173" y1="258.024" x2="149.173" y2="275.315"/>
  </g>
  <g id="LINE10" data-name="LINE">
    <line class="st0" x1="234.213" y1="258.024" x2="234.213" y2="275.315"/>
  </g>
  <g id="LINE11" data-name="LINE">
    <line class="st0" x1="305.079" y1="258.024" x2="305.079" y2="275.315"/>
  </g>
  <g id="LINE12" data-name="LINE">
    <line class="st0" x1="92.48" y1="258.024" x2="92.48" y2="275.315"/>
  </g>
  <g id="LINE13" data-name="LINE">
    <line class="st0" x1="17.646" y1="258.024" x2="17.362" y2="258.024"/>
  </g>
  <g id="LINE14" data-name="LINE">
    <line class="st0" x1="92.48" y1="275.315" x2="17.362" y2="275.315"/>
  </g>
  <g id="LINE15" data-name="LINE">
    <line class="st0" x1="149.173" y1="258.024" x2="92.48" y2="258.024"/>
  </g>
  <g id="LINE16" data-name="LINE">
    <line class="st0" x1="234.213" y1="275.315" x2="149.173" y2="275.315"/>
  </g>
  <g id="LINE17" data-name="LINE">
    <line class="st0" x1="366.024" y1="258.024" x2="365.74" y2="258.024"/>
  </g>
  <g id="LINE18" data-name="LINE">
    <line class="st0" x1="305.079" y1="258.024" x2="234.213" y2="258.024"/>
  </g>
  <g id="LWPOLYLINE">
    <rect class="st0" x="84.685" y="147.756" width="43.937" height="56.693"/>
  </g>
  <g id="CIRCLE">
    <circle class="st0" cx="191.693" cy="176.102" r="19.134"/>
  </g>
  <g id="CIRCLE1" data-name="CIRCLE">
    <circle class="st0" cx="276.732" cy="176.102" r="16.299"/>
  </g>
  <g id="LINE19" data-name="LINE">
    <line class="st0" x1="310.748" y1=".354" x2="366.024" y2=".354"/>
  </g>
  <g id="LINE20" data-name="LINE">
    <line class="st0" x1="17.362" y1=".354" x2="72.638" y2=".354"/>
  </g>
  <g id="LINE21" data-name="LINE">
    <line class="st0" x1="72.638" y1=".354" x2="89.646" y2="17.362"/>
  </g>
  <g id="LINE22" data-name="LINE">
    <line class="st0" x1="310.748" y1=".354" x2="293.74" y2="17.362"/>
  </g>
  <g id="LINE23" data-name="LINE">
    <line class="st0" x1="305.079" y1="275.315" x2="366.024" y2="275.315"/>
  </g>
  <g id="LINE24" data-name="LINE">
    <line class="st0" x1="366.024" y1="275.315" x2="366.024" y2="191.693"/>
  </g>
  <g id="LINE25" data-name="LINE">
    <line class="st0" x1="383.031" y1="191.693" x2="383.031" y2="75.472"/>
  </g>
  <g id="LINE26" data-name="LINE">
    <line class="st0" x1="366.024" y1="75.472" x2="366.024" y2=".354"/>
  </g>
  <g id="LINE27" data-name="LINE">
    <line class="st0" x1="17.362" y1="275.315" x2="17.362" y2="191.693"/>
  </g>
  <g id="LINE28" data-name="LINE">
    <line class="st0" x1=".354" y1="191.693" x2=".354" y2="75.614"/>
  </g>
  <g id="LINE29" data-name="LINE">
    <line class="st0" x1="17.362" y1="75.472" x2="17.362" y2=".354"/>
  </g>
</svg>